<svg width="137" height="62" viewBox="0 0 137 62" fill="none" xmlns="http://www.w3.org/2000/svg">
<path d="M56.9551 6.41347C65.3145 5.9243 66.8504 0.203818 66.8504 0.203818L62.9766 0C60.8833 5.43514 57.0775 5.00033 56.1804 5.80201C55.2969 6.6037 56.9551 6.41347 56.9551 6.41347Z" fill="#055C5B"/>
<path d="M73.087 6.08793C73.1413 6.00641 73.1685 5.97923 73.1685 5.97923C73.1685 5.97923 71.5238 5.62595 70.0695 6.45481C68.6151 7.28367 66.0325 13.5884 66.0325 13.5884C65.3393 15.2054 64.2111 17.8686 63.0694 20.8036C62.3218 22.7331 61.5742 24.7848 60.949 26.7415C60.1198 29.3096 59.5489 31.1711 59.114 32.5299C58.9645 32.9647 58.8421 33.3588 58.7198 33.6985C58.6654 33.8479 58.6111 33.9838 58.5703 34.1197C58.1353 35.2339 57.7819 35.791 57.2518 36.1035C55.811 37.0682 54.2887 34.6088 53.6091 33.4267C50.4964 27.9508 49.11 20.2329 48.9061 13.9689C48.8653 12.5014 49.2187 9.33543 48.5119 8.22123C47.2478 6.2374 43.8769 6.87603 43.5643 9.1452C43.374 10.5312 44.407 14.4581 44.7876 15.9799C46.4051 22.4885 49.3547 30.6548 53.9625 35.6279C54.8732 36.6063 56.0557 37.4623 57.2518 37.6525C54.0304 45.4927 48.6614 54.0395 42.1235 58.537L39.5817 60.154C40.7235 60.1132 41.9196 60.2627 43.0478 60.1948C43.306 60.1812 43.7954 60.1268 44.0672 60.0861C44.9643 59.9366 46.1604 58.5914 46.8265 57.9256C52.5625 52.5992 58.2305 44.8269 63.4771 28.2361C67.7316 14.8113 71.4015 8.61527 72.6384 6.75374C72.8423 6.42763 72.9918 6.21022 73.087 6.08793Z" fill="#055C5B"/>
<path d="M111.867 23.1654C112.56 20.6245 114.042 18.5319 115.713 16.5481C116.08 16.0997 116.651 15.828 116.678 15.1893C115.211 15.2165 113.743 15.366 112.288 15.2301C109.189 23.6002 110.222 33.3835 114.816 41.0063C115.197 41.6313 116.325 43.4521 116.814 43.8461C117.29 44.2402 117.412 44.0228 117.861 44.0228C119.03 44.0228 120.213 44.0364 121.381 44.0228C121.653 43.9956 121.667 43.7238 121.517 43.5336C116.067 38.3702 109.61 31.3453 111.867 23.1654Z" fill="#055C5B"/>
<path d="M114.556 14.0504C115.772 14.0504 116.758 13.0649 116.758 11.8492C116.758 10.6335 115.772 9.64795 114.556 9.64795C113.34 9.64795 112.354 10.6335 112.354 11.8492C112.354 13.0649 113.34 14.0504 114.556 14.0504Z" fill="#055C5B"/>
<path d="M101.29 19.3499C101.195 19.2547 101.032 19.2276 101.018 19.2276C101.004 19.2004 101.004 19.0781 101.059 19.0509C102.432 18.059 103.655 16.0888 103.655 14.3495C103.655 12.9636 102.377 9.77041 100.705 9.81118C100.026 9.83835 98.8161 11.1156 98.8025 11.795C98.8025 12.8684 99.6996 13.2489 100.311 13.9011C101.63 15.3143 102.187 17.1758 100.515 18.5889C99.618 18.0454 98.7753 17.3932 97.851 16.8905C92.3189 13.9147 85.6858 14.5126 80.711 18.3036C68.6953 27.5026 78.0741 44.9494 91.9111 44.0933C104.104 43.3324 110.247 27.8694 101.29 19.3499ZM98.4355 38.1147C92.7131 44.4466 83.6198 43.6993 80.3304 35.4786C77.8022 29.1603 79.9498 21.157 85.8353 17.5155C89.6684 15.1512 95.1461 15.8578 98.5306 18.7248C104.226 23.5621 103.084 32.9649 98.4355 38.1147Z" fill="#055C5B"/>
<path d="M62.9073 56.6609C62.8257 57.6799 62.4044 58.536 61.6296 59.2154C60.8684 59.8948 59.9713 60.2345 58.9519 60.2345C57.8781 60.2345 56.9402 59.854 56.1519 59.1067C55.3499 58.3457 54.9421 57.4218 54.9421 56.3619C54.9421 55.2885 55.3363 54.3645 56.1383 53.6036C56.9266 52.8563 57.8509 52.4894 58.9383 52.4894C60.1752 52.4894 61.1946 52.9514 61.9966 53.8618C62.2141 54.1063 62.3772 54.3509 62.4859 54.6091H61.616C61.3577 54.1607 60.9772 53.8074 60.4742 53.5356C59.9849 53.2775 59.482 53.1552 58.9519 53.1552C58.0548 53.1552 57.2936 53.4677 56.6548 54.0927C56.0159 54.7178 55.6897 55.4787 55.6897 56.3619C55.6897 57.2587 56.0159 58.0196 56.6684 58.6311C57.3072 59.2425 58.082 59.5415 58.9791 59.5415C59.6587 59.5415 60.2839 59.3377 60.8548 58.93C61.4529 58.5088 61.8335 57.9789 61.9966 57.3402H57.8237V56.6609H62.9073Z" fill="#055C5B"/>
<path d="M68.7112 59.3779C68.1404 59.9486 67.4607 60.2339 66.6724 60.2339C65.8976 60.2339 65.218 59.9486 64.6471 59.3779C64.0762 58.8072 63.7908 58.1414 63.7908 57.3669C63.7908 56.5652 64.0762 55.8722 64.6335 55.3015C65.1908 54.7172 65.884 54.4319 66.6724 54.4319C67.4607 54.4319 68.1404 54.7172 68.7112 55.2879C69.2821 55.8586 69.5676 56.538 69.5676 57.3261C69.5676 58.1278 69.2821 58.8072 68.7112 59.3779ZM68.2219 55.7363C67.787 55.2879 67.284 55.0705 66.6724 55.0705C66.0471 55.0705 65.5306 55.3015 65.1093 55.7635C64.6879 56.2119 64.484 56.7418 64.484 57.3669C64.484 57.9783 64.7015 58.4947 65.1229 58.9431C65.5442 59.3915 66.0743 59.6089 66.6724 59.6089C67.2976 59.6089 67.8277 59.3779 68.2491 58.9295C68.6569 58.4811 68.8608 57.9511 68.8608 57.3125C68.8608 56.7011 68.6433 56.1711 68.2219 55.7363ZM67.5559 53.6438L66.686 52.9101L65.8025 53.6438H64.8782L66.3462 52.3801H67.0122L68.453 53.6438H67.5559ZM66.2918 62.0003V60.7231H67.0394V62.0003H66.2918Z" fill="#055C5B"/>
<path d="M70.6272 53.8997V52.6224H71.3338V53.8997H70.6272ZM70.6272 60.0958V54.5655H71.3338V60.0958H70.6272Z" fill="#055C5B"/>
<path d="M75.5488 55.9126V52.6107H77.7371C78.1721 52.6107 78.5935 52.6651 79.0012 52.7602C79.4634 52.8689 79.8575 53.0319 80.1702 53.2358C81.3119 53.9559 81.8692 55.0022 81.8692 56.3881C81.8692 57.7197 81.2983 58.7524 80.1702 59.4998C79.844 59.7036 79.4634 59.8666 78.9876 59.9753C78.5799 60.0704 78.1585 60.1248 77.7235 60.1248H75.5352V56.6191H74.9371V55.9397H75.5488V55.9126ZM76.2963 56.592V59.4318H77.5468C77.7915 59.4318 78.009 59.4318 78.1857 59.4182C78.4032 59.4046 78.6071 59.3775 78.7973 59.3367C79.2323 59.2416 79.6129 59.0785 79.9527 58.834C80.3333 58.5622 80.6187 58.1953 80.8362 57.7333C81.0401 57.2985 81.1352 56.8365 81.1352 56.361C81.1352 55.2875 80.7139 54.4723 79.8575 53.888C79.5177 53.657 79.1236 53.4939 78.675 53.4124C78.4847 53.3716 78.2672 53.3445 78.0362 53.3309C77.8595 53.3173 77.642 53.3173 77.3837 53.3173H76.2963V55.9397H78.5663V56.6191H76.2963V56.592Z" fill="#055C5B"/>
<path d="M87.8902 60.0973V59.119H87.8766C87.3873 59.8527 86.6669 60.2196 85.729 60.2196C84.8999 60.2196 84.1931 59.9479 83.6222 59.3907C83.0513 58.8336 82.7523 58.1407 82.7523 57.3118C82.7523 56.4829 83.0377 55.8036 83.6222 55.2465C84.1931 54.7029 84.8999 54.4176 85.7154 54.4176C86.6805 54.4176 87.4009 54.7845 87.863 55.5318H87.8766V54.5671H88.5834V60.0973H87.8902ZM87.3057 55.7492C86.8708 55.3008 86.3407 55.0698 85.729 55.0698C85.0766 55.0698 84.5329 55.2872 84.0979 55.722C83.663 56.1568 83.4591 56.7004 83.4591 57.3526C83.4591 58.0048 83.6765 58.5347 84.1115 58.9559C84.5465 59.3772 85.0766 59.5946 85.729 59.5946C86.3542 59.5946 86.8843 59.3772 87.3057 58.9288C87.7271 58.494 87.9446 57.964 87.9446 57.339C87.9446 56.7139 87.7271 56.184 87.3057 55.7492ZM86.6805 53.6431L85.8105 52.9093L84.927 53.6431H84.0028L85.4707 52.3794H86.1368L87.5776 53.6431H86.6805ZM87.1154 52.5017L85.1173 51.4147L85.4435 50.8032L87.4552 51.9038L87.1154 52.5017Z" fill="#055C5B"/>
<path d="M94.0329 60.0982V59.2422H94.0193C93.8698 59.5683 93.6251 59.8129 93.2853 59.9895C92.9727 60.1526 92.6329 60.2341 92.2523 60.2341C91.4232 60.2341 90.7843 59.9624 90.3494 59.4053C90.1727 59.1743 90.0367 58.8889 89.9552 58.5628C89.8872 58.2911 89.86 57.9785 89.86 57.6253V54.568H90.5669V57.6117C90.5669 58.2367 90.6892 58.6987 90.9338 59.0384C91.2193 59.4189 91.6542 59.5955 92.2523 59.5955C92.7145 59.5955 93.1086 59.446 93.4349 59.1471C93.6523 58.9297 93.8154 58.6851 93.9106 58.3862C93.9785 58.1552 94.0193 57.8563 94.0193 57.4894V54.568H94.7261V60.0982H94.0329Z" fill="#055C5B"/>
<path d="M103.549 59.4843C103.223 59.6881 102.842 59.8512 102.366 59.9599C101.945 60.055 101.523 60.1093 101.102 60.1093H98.9137V52.6224H101.102C101.537 52.6224 101.958 52.6768 102.366 52.7719C102.828 52.8806 103.223 53.0437 103.549 53.2475C104.677 53.9676 105.248 55.0139 105.248 56.3999C105.248 57.7179 104.69 58.7506 103.549 59.4843ZM103.223 53.8725C102.896 53.6415 102.502 53.4785 102.04 53.3969C101.85 53.3562 101.632 53.329 101.401 53.3154C101.211 53.3018 100.993 53.3018 100.749 53.3018H99.6613V59.43H100.898C101.143 59.43 101.36 59.43 101.551 59.4164C101.768 59.4028 101.972 59.3756 102.162 59.3348C102.597 59.2397 102.978 59.0767 103.318 58.8321C103.685 58.5603 103.984 58.1935 104.188 57.7315C104.391 57.2967 104.487 56.8347 104.487 56.3591C104.5 55.2857 104.079 54.4568 103.223 53.8725Z" fill="#055C5B"/>
<path d="M111.853 57.5968H106.811C106.838 58.1403 107.069 58.6159 107.504 59.01C107.925 59.404 108.414 59.6078 108.972 59.6078C109.407 59.6078 109.801 59.4991 110.168 59.2681C110.548 59.0236 110.807 58.711 110.956 58.3034H111.704C111.5 58.8877 111.147 59.3497 110.644 59.7165C110.141 60.0698 109.583 60.26 108.985 60.26C108.183 60.26 107.504 59.9747 106.946 59.404C106.389 58.8469 106.104 58.1675 106.104 57.3658C106.104 56.5777 106.389 55.8848 106.946 55.3141C107.517 54.7434 108.197 54.4444 108.985 54.4444C109.787 54.4444 110.481 54.7434 111.038 55.3277C111.595 55.9119 111.881 56.6049 111.881 57.4066L111.853 57.5968ZM111.133 56.9582C111.038 56.4147 110.793 55.9663 110.399 55.5994C109.991 55.2461 109.515 55.0559 108.972 55.0559C108.428 55.0559 107.952 55.2325 107.545 55.5994C107.15 55.9527 106.906 56.4011 106.811 56.9582H111.133ZM109.882 53.6428L109.013 52.909L108.129 53.6428H107.205L108.673 52.3791H109.339L110.78 53.6428H109.882ZM111.31 51.8899C110.956 52.1481 110.616 52.284 110.317 52.284C110.181 52.284 110.046 52.2568 109.896 52.216C109.801 52.1889 109.679 52.1345 109.529 52.0666L109.189 51.9171C109.067 51.8763 108.945 51.8492 108.849 51.8492C108.618 51.8492 108.387 51.9443 108.17 52.1481L107.816 51.6453C108.129 51.36 108.469 51.2241 108.863 51.2241C108.999 51.2241 109.135 51.2513 109.271 51.2921C109.366 51.3192 109.488 51.3736 109.624 51.4415C109.638 51.4415 109.651 51.4551 109.665 51.4551C109.679 51.4551 109.692 51.4687 109.706 51.4687C109.733 51.4823 109.76 51.4959 109.787 51.5095L109.95 51.5774C110.073 51.6182 110.181 51.6453 110.29 51.6453C110.399 51.6453 110.508 51.6182 110.63 51.5502L110.861 51.4279L110.929 51.3872L111.31 51.8899Z" fill="#055C5B"/>
<path d="M122.876 58.1419C122.115 59.5415 120.96 60.2345 119.424 60.2345C118.35 60.2345 117.426 59.854 116.651 59.1067C115.89 58.3593 115.496 57.4354 115.496 56.3619C115.496 55.2749 115.876 54.3509 116.637 53.6036C117.385 52.8563 118.309 52.4894 119.41 52.4894C120.593 52.4894 121.571 52.9378 122.36 53.821C122.577 54.0656 122.74 54.2966 122.835 54.5276H121.993C121.381 53.6172 120.511 53.1552 119.383 53.1552C118.527 53.1552 117.793 53.4813 117.167 54.1199C116.556 54.7586 116.243 55.5059 116.243 56.3619C116.243 57.2044 116.556 57.9381 117.181 58.5767C117.82 59.2154 118.554 59.5415 119.397 59.5415C119.927 59.5415 120.416 59.4192 120.878 59.161C121.313 58.9164 121.68 58.5767 122.02 58.1283H122.876V58.1419Z" fill="#055C5B"/>
<path d="M128.097 60.0959V57.0658C128.097 56.7669 128.056 56.4951 127.975 56.2505C127.88 55.9516 127.744 55.7206 127.567 55.5439C127.227 55.2314 126.833 55.0684 126.371 55.0684C125.909 55.0684 125.501 55.2314 125.161 55.5439C124.984 55.7206 124.849 55.938 124.753 56.2233C124.672 56.4679 124.645 56.7261 124.645 57.0114V60.1095H123.938V52.6226H124.645V55.2858H124.658C125.025 54.7151 125.596 54.4297 126.357 54.4297C127.132 54.4297 127.73 54.6743 128.165 55.1771C128.586 55.6527 128.79 56.2777 128.79 57.0658V60.1095H128.097V60.0959Z" fill="#055C5B"/>
<path d="M130.094 61.9982V60.7209H130.842V61.9982H130.094ZM130.135 53.8998V52.6226H130.842V53.8998H130.135ZM130.135 60.0959V54.5656H130.842V60.0959H130.135Z" fill="#055C5B"/>
<path d="M136.307 60.0982V59.2422H136.293C136.144 59.5683 135.899 59.8129 135.559 59.9895C135.247 60.1526 134.907 60.2341 134.526 60.2341C133.697 60.2341 133.058 59.9624 132.623 59.4053C132.447 59.1743 132.311 58.8889 132.229 58.5628C132.161 58.2911 132.134 57.9785 132.134 57.6253V54.568H132.841V57.6117C132.841 58.2367 132.963 58.6987 133.208 59.0384C133.493 59.4189 133.928 59.5955 134.526 59.5955C134.988 59.5955 135.382 59.446 135.709 59.1471C135.926 58.9297 136.089 58.6851 136.184 58.3862C136.252 58.1552 136.293 57.8563 136.293 57.4894V54.568H137V60.0982H136.307Z" fill="#055C5B"/>
<path d="M11.7311 27.3653C-3.54679 32.0531 -4.03612 53.7665 11.0514 59.1609C11.7582 59.4191 13.9874 60.3566 14.0689 59.1201C14.1505 58.0467 12.2476 57.87 11.4184 57.5711C7.69411 56.2123 4.51349 53.2094 2.896 49.595C2.46104 48.6303 2.08046 47.5569 1.91735 46.5106C3.09988 47.9917 4.86689 48.6031 6.67468 48.9564C6.79701 45.872 4.93486 42.7332 1.56394 42.6652C2.08046 33.1673 10.9155 26.4957 20.2535 28.6562C20.9059 28.8056 21.5312 29.0366 22.17 29.2268L20.5661 29.8519C18.9214 30.8438 18.0651 32.7189 17.7117 34.5533C19.8865 34.5397 22.0749 34.1321 23.3661 32.2298C23.7875 31.6047 23.9778 30.9525 24.304 30.2867C31.508 34.4853 34.0362 43.8338 29.741 51.0897C29.2924 51.837 28.7487 52.6659 28.0963 53.2502C29.0613 51.0354 28.3138 48.6711 26.873 46.8775C26.5875 47.3802 26.139 47.8014 25.7992 48.3042C24.5623 50.1521 24.2225 52.0952 25.3642 54.1062C25.473 54.31 26.1933 55.1661 26.1254 55.2748C24.1409 56.7558 21.9117 57.87 19.4515 58.3049C18.568 58.4543 17.6981 58.4951 16.8146 58.5902V51.0761C24.2904 50.4918 28.2322 41.9043 24.0593 35.7082L18.7583 39.6216L15.8088 36.7545L12.8592 39.6216L7.87081 35.8849C4.36398 40.8445 6.51157 47.9237 12.0437 50.3016C13.0495 50.7364 14.0553 50.9266 15.1156 51.1576L15.1427 59.5006C15.1835 59.8539 15.5505 60.112 15.8903 60.1528C20.1583 60.6556 25.473 58.3049 28.4633 55.3563C40.9003 43.0865 28.5176 22.2019 11.7311 27.3653ZM5.32904 47.3802C3.69795 47.0133 2.3523 45.6953 2.27075 43.9697C3.94261 44.1599 5.15233 45.7633 5.32904 47.3802ZM19.302 33.3168C19.7777 31.6862 21.2049 30.3682 22.972 30.3546C22.5642 32.1211 21.0147 33.0722 19.302 33.3168ZM12.7641 48.9021C8.69995 47.2172 6.79701 42.5158 8.22421 38.3851L13.1583 42.0266L15.8767 39.3498L18.6632 42.0402L20.5389 40.6406C20.7564 41.9858 20.5389 43.5077 20.104 44.7849C19.9273 45.3013 19.2069 46.3475 19.8457 46.7416C20.8108 47.353 21.3816 45.342 21.5448 44.7306C21.9525 43.2767 21.9797 41.9858 21.9389 40.4912C21.9253 40.1243 21.6943 39.8254 21.9661 39.4857C22.0341 39.4041 23.3797 38.3715 23.5021 38.3171C23.5972 38.2764 23.6652 38.2628 23.7603 38.2764C25.6361 43.3446 22.2108 49.0787 16.7738 49.4456C15.8224 49.8396 13.7155 49.2961 12.7641 48.9021ZM26.506 53.5763C25.5001 52.3126 25.7448 50.288 26.6963 49.0651C26.7506 48.9972 26.6963 48.9021 26.9002 48.9564C27.6341 50.5326 27.6477 52.1767 26.506 53.5763Z" fill="#055C5B"/>
</svg>
