<svg width="23" height="23" viewBox="0 0 23 23" fill="none" xmlns="http://www.w3.org/2000/svg">
<path fill-rule="evenodd" clip-rule="evenodd" d="M8.02124 4.35085C8.95964 3.46003 10.2052 2.96499 11.499 2.96856C12.7929 2.97212 14.0357 3.47404 14.9692 4.37002C15.4362 4.82229 15.8071 5.36419 16.0596 5.96323C16.3122 6.56228 16.4412 7.20615 16.439 7.85626C16.4367 8.50637 16.3033 9.14934 16.0466 9.74663C15.7899 10.3439 15.4153 10.8833 14.9452 11.3323C13.0189 13.134 9.8852 13.3113 7.98291 11.294C6.17166 9.37731 5.99916 6.24835 8.02124 4.34606V4.35085ZM9.19999 5.60627C9.81311 5.02189 10.6271 4.69511 11.4741 4.69333C12.3211 4.69155 13.1365 5.0149 13.7521 5.59668C15.0458 6.89043 15.0123 8.90293 13.7617 10.0721C12.4344 11.3179 10.3979 11.3371 9.23832 10.1104C7.9877 8.78314 7.97332 6.76106 9.19999 5.60627Z" fill="#A8A29E"/>
<path fill-rule="evenodd" clip-rule="evenodd" d="M5.65417 19.1667C5.65417 17.2596 7.17313 15.8125 9.00834 15.8125H13.8958C15.8029 15.8125 17.25 17.3315 17.25 19.1667C17.25 19.3954 17.3409 19.6148 17.5026 19.7765C17.6644 19.9383 17.8838 20.0292 18.1125 20.0292C18.3413 20.0292 18.5606 19.9383 18.7224 19.7765C18.8841 19.6148 18.975 19.3954 18.975 19.1667C18.975 16.4019 16.7804 14.0875 13.8958 14.0875H9.00834C6.24354 14.0875 3.92917 16.2821 3.92917 19.1667C3.92917 19.3954 4.02004 19.6148 4.18179 19.7765C4.34354 19.9383 4.56292 20.0292 4.79167 20.0292C5.02042 20.0292 5.2398 19.9383 5.40155 19.7765C5.5633 19.6148 5.65417 19.3954 5.65417 19.1667Z" fill="#A8A29E"/>
</svg>
